<?xml version="1.0" standalone="no"?>
<!DOCTYPE svg PUBLIC "-//W3C//DTD SVG 20010904//EN"
 "http://www.w3.org/TR/2001/REC-SVG-20010904/DTD/svg10.dtd">
<svg version="1.0" xmlns="http://www.w3.org/2000/svg"
 width="600.000000pt" height="600.000000pt" viewBox="0 0 600.000000 600.000000"
 preserveAspectRatio="xMidYMid meet">
<metadata>
Created by potrace 1.11, written by Peter Selinger 2001-2013
</metadata>
<g transform="translate(0.000000,600.000000) scale(0.100000,-0.100000)"
fill="#000000" stroke="none">
<path d="M2986 5993 c-9 -9 -104 -64 -156 -90 -19 -10 -37 -21 -40 -24 -4 -5
-105 -64 -306 -179 -18 -10 -141 -82 -275 -161 -134 -78 -264 -153 -289 -167
-25 -13 -49 -28 -55 -32 -5 -5 -37 -23 -70 -41 -33 -18 -62 -35 -65 -38 -3 -3
-29 -19 -58 -34 -29 -16 -109 -62 -178 -103 -69 -41 -127 -74 -130 -74 -2 0
-21 -11 -42 -23 -20 -13 -50 -32 -67 -43 -16 -10 -33 -19 -37 -19 -4 0 -13 -6
-20 -12 -6 -7 -18 -13 -25 -13 -7 0 -13 -4 -13 -10 0 -5 -4 -10 -8 -10 -7 0
-105 -54 -182 -100 -55 -33 -171 -101 -205 -120 -99 -56 -124 -70 -180 -104
-33 -19 -79 -47 -102 -60 l-43 -26 0 -1478 c0 -1396 1 -1480 18 -1493 9 -8 28
-20 41 -27 112 -63 375 -220 388 -231 7 -6 14 -11 16 -11 10 0 282 -165 285
-172 2 -4 8 -8 14 -8 9 0 247 -138 258 -150 3 -3 21 -14 40 -24 19 -11 152
-89 295 -174 143 -85 274 -163 290 -172 83 -48 371 -220 380 -227 6 -4 30 -19
55 -32 25 -13 52 -30 61 -37 8 -8 18 -14 22 -14 3 0 54 -29 112 -65 59 -36
108 -65 110 -65 2 0 39 -22 82 -48 43 -27 86 -52 97 -55 12 -5 41 7 90 37 59
36 376 224 493 292 18 11 69 41 114 68 46 27 97 57 115 66 17 10 62 37 99 59
37 23 71 41 75 41 5 0 15 6 22 13 7 8 33 25 58 39 25 14 70 40 100 58 30 18
71 42 90 53 19 11 49 28 65 39 17 10 38 21 48 24 9 4 17 10 17 14 0 5 12 13
28 19 15 6 52 27 82 46 30 19 72 42 93 52 20 10 37 21 37 25 0 5 7 8 15 8 8 0
15 5 15 10 0 6 5 10 10 10 8 0 216 119 280 160 8 5 47 27 85 50 39 22 171 100
295 174 l225 134 3 1504 2 1505 -22 11 c-35 18 -98 55 -145 85 -24 15 -45 27
-47 27 -4 0 -271 152 -316 180 -8 5 -52 31 -98 57 -46 27 -91 53 -101 58 -9 6
-64 37 -121 69 -58 33 -107 62 -110 65 -3 3 -21 14 -40 23 -50 25 -94 52 -98
61 -2 4 -8 7 -13 7 -7 0 -140 73 -199 110 -14 9 -145 84 -238 137 -23 13 -93
53 -154 89 -61 35 -115 64 -119 64 -5 0 -9 5 -9 10 0 6 -3 9 -7 8 -5 -1 -19 5
-33 14 -42 26 -200 118 -205 118 -2 0 -45 25 -96 55 -50 30 -93 55 -95 55 -3
0 -23 12 -47 27 -23 14 -67 40 -97 56 -30 17 -60 34 -67 39 -10 8 -84 48 -88
48 -1 0 -5 -3 -9 -7z"/>
</g>
</svg>
