<?xml version="1.0" standalone="no"?>
<!DOCTYPE svg PUBLIC "-//W3C//DTD SVG 20010904//EN"
 "http://www.w3.org/TR/2001/REC-SVG-20010904/DTD/svg10.dtd">
<svg version="1.0" xmlns="http://www.w3.org/2000/svg"
 width="64.000000pt" height="64.000000pt" viewBox="0 0 64.000000 64.000000"
 preserveAspectRatio="xMidYMid meet">
<metadata>
Created by potrace 1.15, written by Peter Selinger 2001-2017
</metadata>
<g transform="translate(0.000000,64.000000) scale(0.100000,-0.100000)"
fill="#000000" stroke="none">
<path d="M388 589 c-13 -7 -18 -22 -18 -50 0 -28 5 -42 18 -47 13 -5 11 -8
-13 -12 -23 -4 -42 -22 -82 -79 -29 -40 -53 -83 -53 -95 0 -12 -13 -34 -28
-49 -26 -25 -30 -26 -48 -12 -10 8 -33 15 -49 15 -61 0 -140 -147 -89 -167 8
-3 20 -16 25 -29 11 -30 59 -34 59 -5 0 10 22 47 50 81 27 34 50 57 50 51 0
-6 5 -11 10 -11 6 0 10 9 10 20 0 28 29 70 48 70 9 0 28 15 43 33 25 28 28 30
29 11 0 -29 -20 -84 -31 -84 -5 0 -9 -10 -9 -21 0 -12 -16 -42 -36 -65 -45
-56 -45 -98 1 -102 23 -2 39 6 70 35 22 21 47 49 56 62 l15 24 44 -61 c35 -51
48 -62 71 -62 46 0 54 30 24 89 -14 28 -25 59 -25 71 0 11 -6 20 -13 20 -14 0
-47 60 -47 85 0 12 5 12 35 -1 74 -31 103 27 36 71 -40 27 -109 105 -92 105
39 0 57 91 22 110 -25 13 -61 12 -83 -1z m50 -141 c7 -7 12 -43 12 -92 0 -76
2 -83 50 -172 28 -51 50 -100 50 -108 0 -32 -30 -15 -73 42 -97 127 -107 147
-107 206 0 31 -4 56 -10 56 -5 0 -24 -20 -42 -45 -32 -43 -58 -58 -58 -32 0 6
23 45 51 85 45 64 54 72 83 72 17 0 37 -5 44 -12z"/>
</g>
</svg>
